<?xml version="1.0" encoding="UTF-8"?>
<svg version="1.1" xmlns="http://www.w3.org/2000/svg" width="123" height="130">
<path d="M0 0 C40.59 0 81.18 0 123 0 C123 42.9 123 85.8 123 130 C82.41 130 41.82 130 0 130 C0 87.1 0 44.2 0 0 Z " fill="#FEFEFE" transform="translate(0,0)"/>
<path d="M0 0 C8.77640489 6.35633311 15.47530946 15.57253072 17.4765625 26.390625 C18.38286308 40.54971445 16.765234 52.06551098 7.4765625 63.390625 C1.54040688 69.91685573 -5.0682424 73.84550115 -13.5234375 76.390625 C-14.8434375 76.390625 -16.1634375 76.390625 -17.5234375 76.390625 C-17.50772705 77.21788086 -17.4920166 78.04513672 -17.47583008 78.89746094 C-17.41347446 82.64511277 -17.37444404 86.39265545 -17.3359375 90.140625 C-17.31080078 91.44257812 -17.28566406 92.74453125 -17.25976562 94.0859375 C-17.25009766 95.33632812 -17.24042969 96.58671875 -17.23046875 97.875 C-17.2147583 99.02709961 -17.19904785 100.17919922 -17.18286133 101.36621094 C-17.5535703 104.65821286 -18.29728548 105.99757577 -20.5234375 108.390625 C-25.3984375 107.515625 -25.3984375 107.515625 -26.5234375 106.390625 C-26.61127292 104.17207236 -26.63038359 101.95074004 -26.62109375 99.73046875 C-26.6196788 99.06600235 -26.61826385 98.40153595 -26.61680603 97.7169342 C-26.61119268 95.58728601 -26.59863804 93.45774161 -26.5859375 91.328125 C-26.58092421 89.88737131 -26.57636101 88.44661597 -26.57226562 87.00585938 C-26.56121895 83.46741398 -26.54394542 79.92902961 -26.5234375 76.390625 C-27.11439209 76.34309082 -27.70534668 76.29555664 -28.31420898 76.24658203 C-38.40935948 75.30515079 -46.75378143 71.05915656 -53.5234375 63.390625 C-61.07298821 52.93040414 -64.89474369 41.32280425 -63.5234375 28.390625 C-61.48411587 17.25932776 -55.34468509 7.43254402 -46.5234375 0.390625 C-31.52827109 -9.15553503 -15.1712177 -9.67576113 0 0 Z " fill="#BE1212" transform="translate(82.5234375,13.609375)"/>
<path d="M0 0 C4.70588235 0.70588235 4.70588235 0.70588235 6 2 C6.15971977 4.37338639 6.2592433 6.72118272 6.31640625 9.09765625 C6.33718735 9.80651474 6.35796844 10.51537323 6.37937927 11.24571228 C6.44494598 13.51787305 6.5037923 15.79015264 6.5625 18.0625 C6.60567849 19.59962183 6.64929255 21.1367315 6.69335938 22.67382812 C6.80063449 26.4490959 6.90188137 30.2244836 7 34 C7.78246094 33.14535156 8.56492187 32.29070313 9.37109375 31.41015625 C10.39321727 30.29425993 11.41535333 29.17837511 12.4375 28.0625 C12.95376953 27.49853516 13.47003906 26.93457031 14.00195312 26.35351562 C17.88671875 22.11328125 17.88671875 22.11328125 19 21 C20.66617115 20.95936168 22.33388095 20.957279 24 21 C23.50412589 25.76318513 22.29990501 28.55472561 19.4375 32.375 C18.72335938 33.344375 18.00921875 34.31375 17.2734375 35.3125 C15.1721232 37.7965279 13.14353611 39.43689347 10.5625 41.375 C6.53705462 45.07746444 6.4215299 48.85199743 6.09741211 54.04931641 C5.95480134 58.36910028 5.9156368 62.67872918 6 67 C3.69 67 1.38 67 -1 67 C-0.95617188 66.18917969 -0.91234375 65.37835938 -0.8671875 64.54296875 C-0.88405088 57.30014548 -1.84484208 53.35916534 -6.875 48 C-7.75929688 47.154375 -8.64359375 46.30875 -9.5546875 45.4375 C-12.71148913 42.290784 -14.8862828 39.70575804 -15.1875 35.1875 C-15.0946875 34.1046875 -15.0946875 34.1046875 -15 33 C-13.3125 32.1875 -13.3125 32.1875 -11 32 C-8.4375 34.25 -8.4375 34.25 -6 37 C-5.401875 37.556875 -4.80375 38.11375 -4.1875 38.6875 C-3 40 -3 40 -3 42 C-2.34 42 -1.68 42 -1 42 C-1.00785522 40.14483765 -1.00785522 40.14483765 -1.01586914 38.25219727 C-1.03391561 33.68075275 -1.04543071 29.10931141 -1.05493164 24.5378418 C-1.05997267 22.55606559 -1.06680538 20.57429311 -1.07543945 18.5925293 C-1.08751515 15.75047891 -1.09323045 12.90847753 -1.09765625 10.06640625 C-1.10281754 9.17474258 -1.10797882 8.28307892 -1.11329651 7.36439514 C-1.11349177 5.24259399 -1.0621003 3.1208922 -1 1 C-0.67 0.67 -0.34 0.34 0 0 Z " fill="#FEFBFB" transform="translate(58,23)"/>
</svg>
